<?xml version="1.0" encoding="UTF-8"?>
<svg width="190px" height="44px" viewBox="0 0 190 44" version="1.1" xmlns="http://www.w3.org/2000/svg" xmlns:xlink="http://www.w3.org/1999/xlink">
    <g stroke="none" stroke-width="1" fill="none" fill-rule="evenodd">
        <g fill="#1F69BF">
            <path d="M7.538,29.276 L5.018,35 L0.482,35 L11.57,9.836 L16.106,9.836 L27.194,35 L22.658,35 L20.138,29.276 L7.538,29.276 Z M18.41,25.352 L13.838,14.984 L9.266,25.352 L18.41,25.352 Z M43.214,26.216 L43.214,15.848 L47.246,15.848 L47.246,35 L43.214,35 L43.214,31.508 C42.5659968,32.6840059 41.6720057,33.6079966 40.532,34.28 C39.3919943,34.9520034 38.1620066,35.288 36.842,35.288 C34.6819892,35.288 32.9360067,34.6280066 31.604,33.308 C30.2719933,31.9879934 29.606,30.0800125 29.606,27.584 L29.606,15.848 L33.638,15.848 L33.638,26.36 C33.638,29.8880176 35.1019854,31.652 38.03,31.652 C39.422007,31.652 40.6339948,31.1900046 41.666,30.266 C42.6980052,29.3419954 43.214,27.9920089 43.214,26.216 Z M58.046,19.088 L58.046,28.808 C58.046,29.7200046 58.2859976,30.4459973 58.766,30.986 C59.2460024,31.5260027 59.9179957,31.796 60.782,31.796 C61.6460043,31.796 62.473996,31.3760042 63.266,30.536 L64.922,33.38 C63.5059929,34.6520064 61.9400086,35.288 60.224,35.288 C58.5079914,35.288 57.0440061,34.6940059 55.832,33.506 C54.6199939,32.3179941 54.014,30.7160101 54.014,28.7 L54.014,19.088 L51.602,19.088 L51.602,15.848 L54.014,15.848 L54.014,9.836 L58.046,9.836 L58.046,15.848 L63.086,15.848 L63.086,19.088 L58.046,19.088 Z M76.802,31.688 C78.5540088,31.688 79.9999943,31.1060058 81.14,29.942 C82.2800057,28.7779942 82.85,27.2720092 82.85,25.424 C82.85,23.5759908 82.2800057,22.0700058 81.14,20.906 C79.9999943,19.7419942 78.5540088,19.16 76.802,19.16 C75.0499912,19.16 73.6040057,19.7419942 72.464,20.906 C71.3239943,22.0700058 70.754,23.5759908 70.754,25.424 C70.754,27.2720092 71.3239943,28.7779942 72.464,29.942 C73.6040057,31.1060058 75.0499912,31.688 76.802,31.688 Z M76.802,35.288 C73.9219856,35.288 71.5220096,34.3340095 69.602,32.426 C67.6819904,30.5179905 66.722,28.1840138 66.722,25.424 C66.722,22.6639862 67.6819904,20.3300095 69.602,18.422 C71.5220096,16.5139905 73.9219856,15.56 76.802,15.56 C79.6820144,15.56 82.0819904,16.5139905 84.002,18.422 C85.9220096,20.3300095 86.882,22.6639862 86.882,25.424 C86.882,28.1840138 85.9220096,30.5179905 84.002,32.426 C82.0819904,34.3340095 79.6820144,35.288 76.802,35.288 Z M109.454,22.76 L113.702,22.76 L113.702,31.364 C111.325988,33.9800131 107.930022,35.288 103.514,35.288 C99.7939814,35.288 96.6800125,34.0640122 94.172,31.616 C91.6639875,29.1679878 90.41,26.0720187 90.41,22.328 C90.41,18.5839813 91.6879872,15.4640125 94.244,12.968 C96.8000128,10.4719875 99.8899819,9.224 103.514,9.224 C107.138018,9.224 110.149988,10.2799894 112.55,12.392 L110.282,15.632 C109.297995,14.7919958 108.308005,14.2100016 107.312,13.886 C106.315995,13.5619984 105.158007,13.4 103.838,13.4 C101.293987,13.4 99.1580086,14.2219918 97.43,15.866 C95.7019914,17.5100082 94.838,19.6699866 94.838,22.346 C94.838,25.0220134 95.6779916,27.1699919 97.358,28.79 C99.0380084,30.4100081 101.071988,31.22 103.46,31.22 C105.848012,31.22 107.845992,30.7040052 109.454,29.672 L109.454,22.76 Z M128.75,19.628 C126.75799,19.628 125.258005,20.2759935 124.25,21.572 C123.241995,22.8680065 122.738,24.6079891 122.738,26.792 L122.738,35 L118.706,35 L118.706,15.848 L122.738,15.848 L122.738,19.7 C123.386003,18.499994 124.267994,17.5160038 125.384,16.748 C126.500006,15.9799962 127.681994,15.5840001 128.93,15.56 L128.966,19.628 L128.75,19.628 Z M148.334,35 L144.662,35 L144.662,32.444 C143.077992,34.3400095 140.954013,35.288 138.29,35.288 C136.29799,35.288 134.648007,34.7240056 133.34,33.596 C132.031993,32.4679944 131.378,30.9620094 131.378,29.078 C131.378,27.1939906 132.073993,25.7840047 133.466,24.848 C134.858007,23.9119953 136.741988,23.444 139.118,23.444 L144.338,23.444 L144.338,22.724 C144.338,20.1799873 142.922014,18.908 140.09,18.908 C138.313991,18.908 136.46601,19.5559935 134.546,20.852 L132.746,18.332 C135.074012,16.4839908 137.713985,15.56 140.666,15.56 C142.922011,15.56 144.763993,16.1299943 146.192,17.27 C147.620007,18.4100057 148.334,20.2039878 148.334,22.652 L148.334,35 Z M144.302,27.872 L144.302,26.252 L139.766,26.252 C136.861985,26.252 135.41,27.1639909 135.41,28.988 C135.41,29.9240047 135.769996,30.6379975 136.49,31.13 C137.210004,31.6220025 138.211994,31.868 139.496,31.868 C140.780006,31.868 141.901995,31.5080036 142.862,30.788 C143.822005,30.0679964 144.302,29.0960061 144.302,27.872 Z M155.426,32.552 C153.625991,30.7279909 152.726,28.3280149 152.726,25.352 C152.726,22.3759851 153.649991,20.0000089 155.498,18.224 C157.346009,16.4479911 159.547987,15.56 162.104,15.56 C164.660013,15.56 166.717992,16.6399892 168.278,18.8 L168.278,8.288 L172.31,8.288 L172.31,35 L168.278,35 L168.278,32.12 C166.789993,34.2320106 164.618014,35.288 161.762,35.288 C159.337988,35.288 157.226009,34.3760091 155.426,32.552 Z M158.522,29.996 C159.698006,31.1480058 161.077992,31.724 162.662,31.724 C164.246008,31.724 165.589994,31.1420058 166.694,29.978 C167.798006,28.8139942 168.35,27.3200091 168.35,25.496 C168.35,23.6719909 167.798006,22.1480061 166.694,20.924 C165.589994,19.6999939 164.234008,19.088 162.626,19.088 C161.017992,19.088 159.638006,19.6999939 158.486,20.924 C157.333994,22.1480061 156.758,23.6779908 156.758,25.514 C156.758,27.3500092 157.345994,28.8439942 158.522,29.996 Z M188.186,19.628 C186.19399,19.628 184.694005,20.2759935 183.686,21.572 C182.677995,22.8680065 182.174,24.6079891 182.174,26.792 L182.174,35 L178.142,35 L178.142,15.848 L182.174,15.848 L182.174,19.7 C182.822003,18.499994 183.703994,17.5160038 184.82,16.748 C185.936006,15.9799962 187.117994,15.5840001 188.366,15.56 L188.402,19.628 L188.186,19.628 Z"></path>
        </g>
    </g>
</svg>
